Jennifer's Body (2009) 1080p(Unrated)AC3+DTS Eng-NLSubs


PLOT

A newly possessed cheerleader turns into a killer who specializes 
in offing her male classmates. Can her best friend put an end to the horror? 

MM:    http://www.moviemeter.nl/film/51495

IMDB:    http://www.imdb.com/title/tt1131734/

INFO

Algemeen
Complete name                    : Jennifer's Body (2009) 1080p(Unrated)AC3+DTS Eng-NLSubs.mkv
Format                           : Matroska
File size                        : 8,89 GiB
Duration                         : 1h 47mn
Overall bit rate                 : 11,8 Mbps
Encoded date                     : UTC 2010-10-10 10:07:05
Writing application              : mkvmerge v3.3.0 ('Language') built on Mar 24 2010 14:59:24
Writing library                  : libebml v0.8.0 + libmatroska v0.9.0

Video
ID                               : 1
Format                           : AVC
Format/Info                      : Advanced Video Codec
Format profile                   : High@L4.1
Format settings, CABAC           : Ja
Format settings, ReFrames        : 4 frames
Muxing mode                      : Container profile=Unknown@4.1
Codec ID                         : V_MPEG4/ISO/AVC
Duration                         : 1h 47mn
Bit rate                         : 9 689 Kbps
Width                            : 1 920 pixels
Height                           : 1 036 pixels
Display aspect ratio             : 1,853
Frame rate                       : 23,976 fps
Color space                      : YUV
Chroma subsampling               : 4:2:0
Bit depth                        : 8 bits
Scan type                        : Progressief
Bits/(Pixel*Frame)               : 0.203
Stream size                      : 7,10 GiB (80%)
Writing library                  : x264 core 68 r1184M 88b35c2
Encoding settings                : cabac=1 / ref=4 / deblock=1:-3:-3 / analyse=0x3:0x113 / 
me=umh / subme=9 / psy_rd=1.0:0.1 / mixed_ref=1 / me_range=32 / chroma_me=1 / trellis=2 / 
8x8dct=1 / cqm=0 / deadzone=21,11 / chroma_qp_offset=-5 / threads=12 / nr=0 / decimate=1 / 
mbaff=0 / bframes=6 / b_pyramid=1 / b_adapt=2 / b_bias=0 / direct=1 / wpredb=1 / keyint=250 / 
keyint_min=25 / scenecut=40 / rc=2pass / bitrate=9689 / ratetol=1.0 / qcomp=0.60 / qpmin=10 / 
qpmax=51 / qpstep=4 / cplxblur=20.0 / qblur=0.5 / vbv_maxrate=50000 / vbv_bufsize=50000 / 
ip_ratio=1.40 / pb_ratio=1.30 / aq=1:0.90
Language                         : Engels

Audio #1
ID                               : 2
Format                           : DTS
Format/Info                      : Digital Theater Systems
Codec ID                         : A_DTS
Duration                         : 1h 47mn
Bit rate mode                    : Constant
Bit rate                         : 1 510 Kbps
Channel(s)                       : 6 kanalen
Channel positions                : Front: L C R, Side: L R, LFE
Sampling rate                    : 48,0 KHz
Bit depth                        : 24 bits
Stream size                      : 1,13 GiB (13%)
Title                            : DTS
Language                         : Engels

Audio #2
ID                               : 3
Format                           : AC-3
Format/Info                      : Audio Coding 3
Mode extension                   : CM (complete main)
Codec ID                         : A_AC3
Duration                         : 1h 47mn
Bit rate mode                    : Constant
Bit rate                         : 640 Kbps
Channel(s)                       : 6 kanalen
Channel positions                : Front: L C R, Side: L R, LFE
Sampling rate                    : 48,0 KHz
Bit depth                        : 16 bits
Stream size                      : 492 MiB (5%)
Title                            : AC3 640Kbps
Language                         : Engels

Tekst #1
ID                               : 4
Format                           : UTF-8
Codec ID                         : S_TEXT/UTF8
Codec ID/Info                    : UTF-8 Plain Text
Language                         : Engels

Tekst #2
ID                               : 5
Format                           : UTF-8
Codec ID                         : S_TEXT/UTF8
Codec ID/Info                    : UTF-8 Plain Text
Language                         : Nederlands

